<svg fill="#ffffff" xmlns="http://www.w3.org/2000/svg" viewBox="0 0 2000 2000"><path d="M861.9 866.3h40l1.8 2.7 63.2 119.4 64.2 120.1c12.7 23.5 33.2 36.4 59.7 37.5 28.1 1.2 56.3.7 84.5.8h24.5l5.1-.3v-112h-107.4v-32.4h139.1v175.7l-4.3.3h-141.5c-26.6-.3-50.6-8.9-70.6-27.1-8.6-7.8-15.6-16.8-21-27.1-26.7-50.4-53.5-100.7-80.1-151.1l-35.9-68.4-1-1.7-78.8 151.6H928l16.2 30.7H786.5l-46.4 90.9h-39.5l161.3-309.4z"/><path d="m974.1 942.6-17.5-32c3.8-3.5 7.4-7.1 11.3-10.4 20.1-16.7 43.2-27.2 68.9-31.7 7.5-1.3 15.2-2.2 22.8-2.2H1233l3.4.2v35.2l-4.2.3-108.4-.4c-18.3-.1-36.6-.5-55-.5-31.5 0-59.4 10-83.2 30.8-3.6 3.3-7.2 6.8-11.5 10.9z"/></svg>