<svg xmlns="http://www.w3.org/2000/svg">
  

  <symbol id="icon-email" viewBox="0 0 640 640">
    <path fill="currentColor" d="M112 128C85.5 128 64 149.5 64 176C64 191.1 71.1 205.3 83.2 214.4L291.2 370.4C308.3 383.2 331.7 383.2 348.8 370.4L556.8 214.4C568.9 205.3 576 191.1 576 176C576 149.5 554.5 128 528 128L112 128zM64 260L64 448C64 483.3 92.7 512 128 512L512 512C547.3 512 576 483.3 576 448L576 260L377.6 408.8C343.5 434.4 296.5 434.4 262.4 408.8L64 260z"/>
  </symbol>

  <symbol id="icon-instagram" viewBox="0 0 1000 1000">
    <path fill="currentColor" d="M295.42,6c-53.2,2.51-89.53,11-121.29,23.48-32.87,12.81-60.73,30-88.45,57.82S40.89,143,28.17,175.92c-12.31,31.83-20.65,68.19-23,121.42S2.3,367.68,2.56,503.46,3.42,656.26,6,709.6c2.54,53.19,11,89.51,23.48,121.28,12.83,32.87,30,60.72,57.83,88.45S143,964.09,176,976.83c31.8,12.29,68.17,20.67,121.39,23s70.35,2.87,206.09,2.61,152.83-.86,206.16-3.39S799.1,988,830.88,975.58c32.87-12.86,60.74-30,88.45-57.84S964.1,862,976.81,829.06c12.32-31.8,20.69-68.17,23-121.35,2.33-53.37,2.88-70.41,2.62-206.17s-.87-152.78-3.4-206.1-11-89.53-23.47-121.32c-12.85-32.87-30-60.7-57.82-88.45S862,40.87,829.07,28.19c-31.82-12.31-68.17-20.7-121.39-23S637.33,2.3,501.54,2.56,348.75,3.4,295.42,6m5.84,903.88c-48.75-2.12-75.22-10.22-92.86-17-23.36-9-40-19.88-57.58-37.29s-28.38-34.11-37.5-57.42c-6.85-17.64-15.1-44.08-17.38-92.83-2.48-52.69-3-68.51-3.29-202s.22-149.29,2.53-202c2.08-48.71,10.23-75.21,17-92.84,9-23.39,19.84-40,37.29-57.57s34.1-28.39,57.43-37.51c17.62-6.88,44.06-15.06,92.79-17.38,52.73-2.5,68.53-3,202-3.29s149.31.21,202.06,2.53c48.71,2.12,75.22,10.19,92.83,17,23.37,9,40,19.81,57.57,37.29s28.4,34.07,37.52,57.45c6.89,17.57,15.07,44,17.37,92.76,2.51,52.73,3.08,68.54,3.32,202s-.23,149.31-2.54,202c-2.13,48.75-10.21,75.23-17,92.89-9,23.35-19.85,40-37.31,57.56s-34.09,28.38-57.43,37.5c-17.6,6.87-44.07,15.07-92.76,17.39-52.73,2.48-68.53,3-202.05,3.29s-149.27-.25-202-2.53m407.6-674.61a60,60,0,1,0,59.88-60.1,60,60,0,0,0-59.88,60.1M245.77,503c.28,141.8,115.44,256.49,257.21,256.22S759.52,643.8,759.25,502,643.79,245.48,502,245.76,245.5,361.22,245.77,503m90.06-.18a166.67,166.67,0,1,1,167,166.34,166.65,166.65,0,0,1-167-166.34" transform="translate(-2.5 -2.5)"/>
  </symbol>


  <symbol id="icon-facebook" viewBox="0 0 500 498.17">
    <path fill="currentColor" d="M600,350c0-138.07-111.93-250-250-250S100,211.93,100,350c0,117.25,80.71,215.62,189.61,242.64V426.4H238.05V350h51.56V317.08c0-85.09,38.5-124.53,122-124.53,15.84,0,43.17,3.1,54.35,6.21V268c-5.9-.62-16.15-.93-28.88-.93-41,0-56.83,15.53-56.83,55.9v27H462l-14,76.4H380.29V598.17C504.07,583.22,600,477.82,600,350"/>
  </symbol>
  

  <symbol id="icon-whatsapp" viewBox="0 0 360 362">
    <path fill="currentColor" fill-rule="evenodd" clip-rule="evenodd" d="M307.546 52.5655C273.709 18.685 228.706 0.0171895 180.756 0C81.951 0 1.53846 80.404 1.50408 179.235C1.48689 210.829 9.74646 241.667 25.4319 268.844L0 361.736L95.0236 336.811C121.203 351.096 150.683 358.616 180.679 358.625H180.756C279.544 358.625 359.966 278.212 360 179.381C360.017 131.483 341.392 86.4547 307.546 52.5741V52.5655ZM180.756 328.354H180.696C153.966 328.346 127.744 321.16 104.865 307.589L99.4242 304.358L43.034 319.149L58.0834 264.168L54.5423 258.53C39.6304 234.809 31.749 207.391 31.7662 179.244C31.8006 97.1036 98.6334 30.2707 180.817 30.2707C220.61 30.2879 258.015 45.8015 286.145 73.9665C314.276 102.123 329.755 139.562 329.738 179.364C329.703 261.513 262.871 328.346 180.756 328.346V328.354ZM262.475 216.777C257.997 214.534 235.978 203.704 231.869 202.209C227.761 200.713 224.779 199.966 221.796 204.452C218.814 208.939 210.228 219.029 207.615 222.011C205.002 225.002 202.389 225.372 197.911 223.128C193.434 220.885 179.003 216.158 161.891 200.902C148.578 189.024 139.587 174.362 136.975 169.875C134.362 165.389 136.7 162.965 138.934 160.739C140.945 158.728 143.412 155.505 145.655 152.892C147.899 150.279 148.638 148.406 150.133 145.423C151.629 142.432 150.881 139.82 149.764 137.576C148.646 135.333 139.691 113.287 135.952 104.323C132.316 95.5909 128.621 96.777 125.879 96.6309C123.266 96.5019 120.284 96.4762 117.293 96.4762C114.302 96.4762 109.454 97.5935 105.346 102.08C101.238 106.566 89.6691 117.404 89.6691 139.441C89.6691 161.478 105.716 182.785 107.959 185.776C110.202 188.767 139.544 234.001 184.469 253.408C195.153 258.023 203.498 260.782 210.004 262.845C220.731 266.257 230.494 265.776 238.212 264.624C246.816 263.335 264.71 253.786 268.44 243.326C272.17 232.866 272.17 223.893 271.053 222.028C269.936 220.163 266.945 219.037 262.467 216.794L262.475 216.777Z"/>
  </symbol>
  

  <symbol id="icon-github" viewBox="0 0 98 96">
    <g clip-path="url(#clip-github)">
      <path fill="currentColor" d="M41.4395 69.3848C28.8066 67.8535 19.9062 58.7617 19.9062 46.9902C19.9062 42.2051 21.6289 37.0371 24.5 33.5918C23.2559 30.4336 23.4473 23.7344 24.8828 20.959C28.7109 20.4805 33.8789 22.4902 36.9414 25.2656C40.5781 24.1172 44.4062 23.543 49.0957 23.543C53.7852 23.543 57.6133 24.1172 61.0586 25.1699C64.0254 22.4902 69.2891 20.4805 73.1172 20.959C74.457 23.543 74.6484 30.2422 73.4043 33.4961C76.4668 37.1328 78.0937 42.0137 78.0937 46.9902C78.0937 58.7617 69.1934 67.6621 56.3691 69.2891C59.623 71.3945 61.8242 75.9883 61.8242 81.252L61.8242 91.2051C61.8242 94.0762 64.2168 95.7031 67.0879 94.5547C84.4102 87.9512 98 70.6289 98 49.1914C98 22.1074 75.9883 0 48.9043 0C21.8203 0 0 22.1074 0 49.1914C0 70.4375 13.4941 88.0469 31.6777 94.6504C34.2617 95.6074 36.75 93.8848 36.75 91.3008L36.75 83.6445C35.4102 84.2188 33.6875 84.6016 32.1562 84.6016C25.8398 84.6016 22.1074 81.1563 19.4277 74.7441C18.375 72.1602 17.2266 70.6289 15.0254 70.3418C13.877 70.2461 13.4941 69.7676 13.4941 69.1934C13.4941 68.0449 15.4082 67.1836 17.3223 67.1836C20.0977 67.1836 22.4902 68.9063 24.9785 72.4473C26.8926 75.2227 28.9023 76.4668 31.2949 76.4668C33.6875 76.4668 35.2187 75.6055 37.4199 73.4043C39.0469 71.7773 40.291 70.3418 41.4395 69.3848Z"/>
    </g>
  </symbol>
  <defs>
    <clipPath id="clip-github">
      <rect width="98" height="96"/>
    </clipPath>
  </defs>


  <symbol id="icon-linkedin" viewBox="0 0 382 382">
  <path fill="currentColor" d="M347.445,0H34.555C15.471,0,0,15.471,0,34.555v312.889C0,366.529,15.471,382,34.555,382h312.889 C366.529,382,382,366.529,382,347.444V34.555C382,15.471,366.529,0,347.445,0z M118.207,329.844c0,5.554-4.502,10.056-10.056,10.056 H65.345c-5.554,0-10.056-4.502-10.056-10.056V150.403c0-5.554,4.502-10.056,10.056-10.056h42.806 c5.554,0,10.056,4.502,10.056,10.056V329.844z M86.748,123.432c-22.459,0-40.666-18.207-40.666-40.666S64.289,42.1,86.748,42.1 s40.666,18.207,40.666,40.666S109.208,123.432,86.748,123.432z M341.91,330.654c0,5.106-4.14,9.246-9.246,9.246H286.73 c-5.106,0-9.246-4.14-9.246-9.246v-84.168c0-12.556,3.683-55.021-32.813-55.021c-28.309,0-34.051,29.066-35.204,42.11v97.079 c0,5.106-4.139,9.246-9.246,9.246h-44.426c-5.106,0-9.246-4.14-9.246-9.246V149.593c0-5.106,4.14-9.246,9.246-9.246h44.426 c5.106,0,9.246,4.14,9.246,9.246v15.655c10.497-15.753,26.097-27.912,59.312-27.912c73.552,0,73.131,68.716,73.131,106.472 L341.91,330.654L341.91,330.654z"/>
  </symbol>


  <symbol id="icon-discord" viewBox="0 0 126.644 96"> 
    <path fill="currentColor" d="M81.15,0c-1.2376,2.1973-2.3489,4.4704-3.3591,6.794-9.5975-1.4396-19.3718-1.4396-28.9945,0-.985-2.3236-2.1216-4.5967-3.3591-6.794-9.0166,1.5407-17.8059,4.2431-26.1405,8.0568C2.779,32.5304-1.6914,56.3725.5312,79.8863c9.6732,7.1476,20.5083,12.603,32.0505,16.0884,2.6014-3.4854,4.8998-7.1981,6.8698-11.0623-3.738-1.3891-7.3497-3.1318-10.8098-5.1523.9092-.6567,1.7932-1.3386,2.6519-1.9953,20.281,9.547,43.7696,9.547,64.0758,0,.8587.7072,1.7427,1.3891,2.6519,1.9953-3.4601,2.0457-7.0718,3.7632-10.835,5.1776,1.97,3.8642,4.2683,7.5769,6.8698,11.0623,11.5419-3.4854,22.3769-8.9156,32.0509-16.0631,2.626-27.2771-4.496-50.9172-18.817-71.8548C98.9811,4.2684,90.1918,1.5659,81.1752.0505l-.0252-.0505ZM42.2802,65.4144c-6.2383,0-11.4159-5.6575-11.4159-12.6535s4.9755-12.6788,11.3907-12.6788,11.5169,5.708,11.4159,12.6788c-.101,6.9708-5.026,12.6535-11.3907,12.6535ZM84.3576,65.4144c-6.2637,0-11.3907-5.6575-11.3907-12.6535s4.9755-12.6788,11.3907-12.6788,11.4917,5.708,11.3906,12.6788c-.101,6.9708-5.026,12.6535-11.3906,12.6535Z"/>
  </symbol>
    

  <symbol id="icon-steam" viewBox="0 0 88.3 88.5">
    <path fill="currentColor" d="M44.1,0C20.8,0,1.8,17.9,0,40.7l23.7,9.8c2-1.4,4.4-2.2,7-2.2c0.2,0,0.5,0,0.7,0L42,33.1c0-0.1,0-0.1,0-0.2
    c0-9.2,7.5-16.7,16.7-16.7c9.2,0,16.7,7.5,16.7,16.7s-7.5,16.7-16.7,16.7c-0.1,0-0.3,0-0.4,0l-15,10.7c0,0.2,0,0.4,0,0.6
    c0,6.9-5.6,12.5-12.5,12.5c-6.1,0-11.1-4.3-12.3-10.1l-17-7c5.2,18.6,22.3,32.2,42.6,32.2c24.4,0,44.2-19.8,44.2-44.2
    C88.3,19.8,68.5,0,44.1,0">
    </path>
    <path fill="currentColor" d="M27.7,67.1l-5.4-2.2c1,2,2.6,3.7,4.8,4.6c4.8,2,10.3-0.3,12.3-5.1c1-2.3,1-4.9,0-7.2c-1-2.3-2.8-4.1-5.1-5.1
    c-2.3-1-4.8-0.9-6.9-0.1l5.6,2.3c3.5,1.5,5.2,5.5,3.7,9C35.3,66.9,31.2,68.6,27.7,67.1">
    </path>
    <path fill="currentColor" d="M69.8,32.8c0-6.1-5-11.1-11.1-11.1c-6.1,0-11.1,5-11.1,11.1c0,6.1,5,11.1,11.1,11.1
    C64.8,43.9,69.8,39,69.8,32.8 M50.3,32.8c0-4.6,3.7-8.3,8.4-8.3s8.4,3.7,8.4,8.3s-3.7,8.3-8.4,8.3S50.3,37.4,50.3,32.8">
    </path>
  </symbol>

</svg>