<?xml version="1.0" encoding="utf-8"?>
<!-- Generator: Adobe Illustrator 22.1.0, SVG Export Plug-In . SVG Version: 6.00 Build 0)  -->
<svg version="1.1" id="Camada_1" xmlns="http://www.w3.org/2000/svg" xmlns:xlink="http://www.w3.org/1999/xlink" x="0px" y="0px"
	 viewBox="0 0 180 180" style="enable-background:new 0 0 180 180;" xml:space="preserve">
<path d="M54.2,37.6h13.4l0.6,0.9l21.2,40.1L111,119c4.3,7.9,11.1,12.2,20,12.6c9.4,0.4,18.9,0.2,28.4,0.3h8.2l1.7-0.1V94.1h-36.1
	V83.3H180v59l-1.4,0.1H131c-8.9-0.1-17-3-23.7-9.1c-2.9-2.6-5.2-5.6-7.1-9.1c-9-16.9-18-33.8-26.9-50.7l-12.1-23L61,49.9l-26.5,50.9
	h41.8l5.4,10.3h-53l-15.6,30.5H0L54.2,37.6L54.2,37.6z"/>
<path d="M91.8,63.3L86,52.5c1.3-1.2,2.5-2.4,3.8-3.5c6.8-5.6,14.5-9.1,23.1-10.6c2.5-0.4,5.1-0.7,7.7-0.7h58.2l1.1,0.1v11.8
	l-1.4,0.1l-36.4-0.1c-6.1,0-12.3-0.2-18.5-0.2c-10.6,0-19.9,3.4-27.9,10.3C94.5,60.8,93.3,62,91.8,63.3L91.8,63.3z"/>
</svg>
